<?xml version="1.0" encoding="UTF-8"?>
<svg id="Layer_1" xmlns="http://www.w3.org/2000/svg" version="1.1" viewBox="0 0 612 792">
  <!-- Generator: Adobe Illustrator 30.1.0, SVG Export Plug-In . SVG Version: 2.1.1 Build 136)  -->
  <defs>
    <style>
      .st0 {
        fill: #cecece;
      }

      .st1 {
        fill: #b5b5b5;
      }

      .st2 {
        fill: #ccc;
      }

      .st3 {
        fill: #1b365d;
      }
    </style>
  </defs>
  <path class="st1" d="M355.82,230.94c-.16-.03-.21-.16-.28-.28.14.03.24.14.28.28Z"/>
  <path class="st3" d="M345,341.06c-1.18,8.17-4.6,16.97-12.3,20.98-2.24,1.16-4.64,1.73-7.17,1.83-1.77.07-3.5.05-5.1-.45-3.93-.46-8.5-3.76-10.68-7.02-5.3-6.93-6.68-17.64-6.39-26.23.29-8.47,2.41-18.52,9.2-24.21,4.44-3.72,9.55-4.59,15.21-3.94.11,0,.22,0,.16.1h.02c4.26.55,8.14,3.07,10.92,6.39.15.18.26.33.31.5,1.82,2.13,3,4.63,3.95,7.23,2.72,7.47,3.01,17.02,1.87,24.82Z"/>
  <path class="st3" d="M339.41,254.85c-1.3,7.38-5.26,14.41-11.86,18.26-3.38,1.98-7.18,3.25-11.03,3.23.06.09-.06.1-.17.14h-8.86c-.49-.01-.92-.08-1.45-.18l-.05-56.36,9.33-.02c1.59-.01,3.12.08,4.58.45,5.8,1.01,10.97,4.39,14.5,9.15.3.4.56.73.72,1.14.13.05.22.2.32.37,2.46,3.94,3.93,8.32,4.38,12.97.36,3.66.23,7.22-.41,10.85Z"/>
  <path class="st2" d="M252.39,212.31c-.15-.02-.39.09-.44-.11.14-.01.37-.02.44.11Z"/>
  <path class="st2" d="M253.23,212.49c-.14-.02-.37.03-.44-.13.14.02.4-.06.44.13Z"/>
  <path class="st2" d="M253.93,212.63c-.14-.02-.37.04-.44-.13.16-.01.39-.06.44.13Z"/>
  <path class="st2" d="M254.5,212.77c-.14-.02-.39.05-.42-.13.15-.02.36-.05.42.13Z"/>
  <path class="st2" d="M254.93,212.91c-.1-.01-.3.01-.29-.13.09.02.3-.01.29.13Z"/>
  <path class="st0" d="M228.42,284.23c-.1-.03-.3-.02-.29-.16.09.04.31,0,.29.16Z"/>
  <path class="st2" d="M255.49,213.05c-.1-.03-.32.01-.31-.14.12,0,.27.01.31.14Z"/>
  <path class="st2" d="M257.17,213.62c-.09-.03-.31-.01-.29-.15.09.03.3.01.29.15Z"/>
  <path class="st2" d="M255.91,213.19c-.1-.03-.28.02-.28-.13.09.02.3-.01.28.13Z"/>
  <path class="st2" d="M258.58,214.19c-.09-.03-.31-.02-.28-.16.11.03.25.01.28.16Z"/>
  <path class="st0" d="M226.01,282.95c-.14-.01-.24-.15-.27-.29.12.07.23.15.27.29Z"/>
  <path class="st2" d="M260.42,215.17c-.14-.06-.26-.14-.3-.28.14.04.27.13.3.28Z"/>
  <path class="st0" d="M226.43,283.23c-.13-.04-.23-.15-.28-.28.13,0,.25.14.28.28Z"/>
  <path class="st0" d="M226.89,283.52c-.14-.04-.27-.14-.32-.29.14.05.27.15.32.29Z"/>
  <path class="st2" d="M261.12,215.59c-.13-.06-.26-.14-.3-.29.14.05.27.14.3.29Z"/>
  <path class="st3" d="M226.01,282.95c-.14-.01-.24-.15-.27-.29.12.07.23.15.27.29Z"/>
  <path class="st3" d="M226.43,283.23c-.13-.04-.23-.15-.28-.28.13,0,.25.14.28.28Z"/>
  <path class="st3" d="M226.89,283.52c-.14-.04-.27-.14-.32-.29.14.05.27.15.32.29Z"/>
  <path class="st3" d="M228.42,284.23c-.1-.03-.3-.02-.29-.16.09.04.31,0,.29.16Z"/>
  <path class="st3" d="M347.03,196.7l-.06-.06h-143.48v.48l-.16,165,15.08,15.08,13.68,13.68h145.02v-164.1l-30.08-30.08ZM314.52,212.28c5.12-.01,10.04.52,14.94,1.5,7.46,1.75,13.89,4.34,19.88,9.4.06.19.28.27.45.43,2.25,2.1,4.26,4.42,5.75,7.05.14.03.24.14.28.28.01.04-.02.1,0,.14.18.49.52.89.78,1.39,1.5,2.92,2.49,5.98,2.98,9.25,1.41,9.36-.54,19-6.19,26.66-2.8,3.81-6.31,6.85-10.37,9.26-6.55,3.89-13.82,5.85-21.43,6.31-.51.03-.93-.07-1.45.14h-31.97c-.06-.33-.07-.58-.05-1.03l-.06-46.75v-24s26.46-.03,26.46-.03ZM224.19,276.49c.74-1.18,1.97-1.93,3.3-2.37,2.81-.92,5.83-1.02,8.69-.2,1.77.5,3.34,1.29,4.93,2.15l2.55,1.37c1.06.58,2.15.76,3.38.71,4-.16,7.52-2.38,9.32-6,1.45-2.91,1.85-6.23,1.17-9.42-.38-1.78-1.33-3.3-2.22-4.74l-.36-.58c-1-1.62-2.77-2.64-4.46-3.54-4.17-2.21-9.74-3.16-14.3-3.05-.2,0-.73.02-.74-.25-.07-1.5-.04-2.89-.01-4.38,4.72-.5,9.45-1.98,12.96-5.12,3.07-2.73,4.7-6.61,4.3-10.71-.12-1.34-.46-2.65-1.2-3.68-.08-.21-.2-.49-.35-.72-1.25-1.89-3.15-3.01-5.25-3.48-1.8-.4-3.56-.35-5.34.48-3.78,1.75-7.2,4.91-9.33,8.42-.1.21-.3.28-.56.17l-5.37-2.43c-.27-.12-.54-.22-.9-.49,2.93-8.1,8.91-14.15,17.46-16.08,2.36-.53,4.66-.64,6.99-.6-.02.08.06.1.16.1l1.52.03c.51.01.96.16,1.42.12.14-.01.37-.02.44.11l.4.05c.14.02.4-.06.44.13.09.01.18.02.26.01.16-.01.39-.06.44.13.05.01.1.01.15.01.15-.02.36-.05.42.13.04.01.09,0,.14.01.09.02.3-.01.29.13.09,0,.17.01.25,0,.12,0,.27.01.31.14.04.02.09,0,.14.01.09.02.3-.01.28.13l.97.28c.09.03.3.01.29.15.39.11.73.32,1.13.41.11.03.25.01.28.16.52.21.99.54,1.54.7.14.04.27.13.3.28.13.05.26.09.4.13.14.05.27.14.3.29.29.13.54.31.83.43.07.18.24.28.43.41,1.71,1.21,3.02,2.74,4.22,4.37-.02.26.2.42.35.67,1.16,2.07,1.77,4.4,1.64,6.8-.06,1.03-.36,1.98-.73,2.92-1.67,4.25-5.25,8.1-8.76,10.97.71.42,1.32.66,1.88,1.05.22.15.63.19.83.38.49.49,1.16.75,1.7,1.16,2.14,1.68,3.76,3.84,5.63,5.79.02.31.29.55.48.84.68,1.03,1.18,2.12,1.65,3.28.97,2.34,1.29,4.75,1.12,7.3-.19,2.84-.7,5.53-1.87,8.12-5.16,11.42-18.06,15.3-29.69,15.66-1.52.05-2.96.11-4.39.03-2.59-.16-5.17-.56-7.63-1.41-.13-.05-.26-.1-.39-.13-.1-.03-.3-.02-.29-.16-.42-.15-.8-.43-1.24-.55-.14-.04-.27-.14-.32-.29-.04-.01-.09.01-.14,0-.13-.04-.23-.15-.28-.28h-.14c-.14-.01-.24-.15-.27-.29-.14-.08-.27-.17-.41-.23-.06-.25-.35-.42-.55-.65-1.25-1.46-1.66-3.6-.59-5.29ZM274.74,368.77l-52.82.02c-.13-.03-.3.04-.56-.08l-.02-22.48-.03-49.19c.63-.13,1.11-.11,1.79-.11h51.51c.26-.01.35.09.47.14l-.02,5.77c0,.23-.05.4-.13.55l-35.7.02v23.07c.46.16.81.06,1.16.04.47.1.95,0,1.42,0l26.61.04c.31,0,.42.09.61.13l-.05,6.27c-.08.18-.44.13-.54.18h-29.2v8.34s.03,19.53.03,19.53c.39.14.69,0,.98.03.51.06,1.01,0,1.52,0l32.98.02c.19,0,.25.09.3.14l.06,7.18c0,.21-.1.4-.37.4ZM362.94,346.43c-1.57,3.99-3.72,7.58-6.6,10.75-6.63,7.31-15.69,11.6-25.44,12.77-.4.05-2.26.16-1.86.25-3.78.24-7.57.3-11.37-.31l-2.44-.4s-.09,0-.14,0c-.03-.19-.29-.12-.43-.14-.08,0-.17-.01-.26,0-.04-.18-.3-.12-.44-.14-.04,0-.09,0-.14,0-.03-.19-.28-.12-.42-.14-.09-.01-.18-.01-.27-.01.02-.15-.2-.11-.3-.13-.04-.01-.09-.01-.14-.01-.03-.18-.28-.13-.42-.13h-.14c.01-.15-.18-.13-.29-.14-.08,0-.17,0-.26,0,.02-.14-.2-.11-.3-.13-.04-.02-.09-.01-.14-.01.01-.15-.18-.12-.28-.13-.05-.01-.1,0-.14-.01,0-.15-.18-.1-.28-.13l-1.4-.42c.02-.14-.2-.12-.29-.15-.05-.01-.1.01-.15,0-.02-.15-.17-.11-.27-.14-.28-.09-.54-.24-.83-.27.01-.15-.2-.12-.3-.16-.22-.11-.45-.21-.7-.27.02-.13-.19-.12-.28-.15-.44-.15-.82-.44-1.27-.55-.37-.3-.83-.51-1.27-.71-.42-.18-.82-.42-1.26-.58-.04-.14-.17-.22-.3-.27l-.4-.14c-.04-.13-.16-.23-.29-.28l-.41-.14c-.05-.14-.18-.24-.32-.29-.03,0-.08.02-.12,0-.04-.14-.16-.28-.3-.28h-.13c-.04-.14-.16-.28-.29-.28h-.13c-.04-.14-.16-.28-.3-.28h-.12c-.04-.13-.15-.23-.28-.28h-.14c-.05-.13-.16-.21-.28-.28l-.29-.14c-.06-.18-.22-.31-.42-.3-6.24-4.78-10.77-11.34-12.93-18.93-1.71-5.96-1.95-12.25-.68-18.34,2.36-11.33,10.08-20.27,20.48-25.05,11.21-5.16,24.74-5.51,36.25-1.37,5.68,2.11,10.75,5.4,15.07,9.73,0,.32.33.49.56.74,2.04,2.15,3.61,4.59,4.95,7.14,2.67,5.1,3.98,10.79,3.93,16.64-.03,4.86-.82,9.5-2.59,14Z"/>
  <path class="st3" d="M339.41,254.85c-1.3,7.38-5.26,14.41-11.86,18.26-3.38,1.98-7.18,3.25-11.03,3.23.06.09-.06.1-.17.14h-8.86c-.49-.01-.92-.08-1.45-.18l-.05-56.36,9.33-.02c1.59-.01,3.12.08,4.58.45,5.8,1.01,10.97,4.39,14.5,9.15.3.4.56.73.72,1.14.13.05.22.2.32.37,2.46,3.94,3.93,8.32,4.38,12.97.36,3.66.23,7.22-.41,10.85Z"/>
  <path class="st3" d="M345,341.06c-1.18,8.17-4.6,16.97-12.3,20.98-2.24,1.16-4.64,1.73-7.17,1.83-1.77.07-3.5.05-5.1-.45-3.93-.46-8.5-3.76-10.68-7.02-5.3-6.93-6.68-17.64-6.39-26.23.29-8.47,2.41-18.52,9.2-24.21,4.44-3.72,9.55-4.59,15.21-3.94.11,0,.22,0,.16.1h.02c4.26.55,8.14,3.07,10.92,6.39.15.18.26.33.31.5,1.82,2.13,3,4.63,3.95,7.23,2.72,7.47,3.01,17.02,1.87,24.82Z"/>
</svg>