<svg xmlns="http://www.w3.org/2000/svg" width="1600" height="900" viewBox="0 0 1600 900">
  <defs>
    <radialGradient id="g" cx="45%" cy="35%" r="80%">
      <stop offset="0" stop-color="#1f66b2" stop-opacity="0.55"/>
      <stop offset="0.5" stop-color="#0aa082" stop-opacity="0.18"/>
      <stop offset="1" stop-color="#061a2e" stop-opacity="0"/>
    </radialGradient>
    <filter id="b" x="-20%" y="-20%" width="140%" height="140%">
      <feGaussianBlur stdDeviation="1.5"/>
    </filter>
  </defs>
  <rect width="1600" height="900" fill="#061a2e"/>
  <rect width="1600" height="900" fill="url(#g)"/>
  <!-- pseudo point cloud -->
  <g filter="url(#b)" opacity="0.9">
    <circle cx="0" cy="0" r="1" fill="#1f66b2" opacity="0.25"/>
<circle cx="73" cy="41" r="2" fill="#0aa082" opacity="0.30833333333333335"/>
<circle cx="146" cy="82" r="3" fill="#e3b341" opacity="0.36666666666666664"/>
<circle cx="219" cy="123" r="1" fill="#d65b5b" opacity="0.425"/>
<circle cx="292" cy="164" r="2" fill="#1f66b2" opacity="0.4833333333333333"/>
<circle cx="365" cy="205" r="3" fill="#0aa082" opacity="0.5416666666666667"/>
<circle cx="438" cy="246" r="1" fill="#e3b341" opacity="0.6"/>
<circle cx="511" cy="287" r="2" fill="#d65b5b" opacity="0.25"/>
<circle cx="584" cy="328" r="3" fill="#1f66b2" opacity="0.30833333333333335"/>
<circle cx="657" cy="369" r="1" fill="#0aa082" opacity="0.36666666666666664"/>
<circle cx="730" cy="410" r="2" fill="#e3b341" opacity="0.425"/>
<circle cx="803" cy="451" r="3" fill="#d65b5b" opacity="0.4833333333333333"/>
<circle cx="876" cy="492" r="1" fill="#1f66b2" opacity="0.5416666666666667"/>
<circle cx="949" cy="533" r="2" fill="#0aa082" opacity="0.6"/>
<circle cx="1022" cy="574" r="3" fill="#e3b341" opacity="0.25"/>
<circle cx="1095" cy="615" r="1" fill="#d65b5b" opacity="0.30833333333333335"/>
<circle cx="1168" cy="656" r="2" fill="#1f66b2" opacity="0.36666666666666664"/>
<circle cx="1241" cy="697" r="3" fill="#0aa082" opacity="0.425"/>
<circle cx="1314" cy="738" r="1" fill="#e3b341" opacity="0.4833333333333333"/>
<circle cx="1387" cy="779" r="2" fill="#d65b5b" opacity="0.5416666666666667"/>
<circle cx="1460" cy="820" r="3" fill="#1f66b2" opacity="0.6"/>
<circle cx="1533" cy="861" r="1" fill="#0aa082" opacity="0.25"/>
<circle cx="6" cy="2" r="2" fill="#e3b341" opacity="0.30833333333333335"/>
<circle cx="79" cy="43" r="3" fill="#d65b5b" opacity="0.36666666666666664"/>
<circle cx="152" cy="84" r="1" fill="#1f66b2" opacity="0.425"/>
<circle cx="225" cy="125" r="2" fill="#0aa082" opacity="0.4833333333333333"/>
<circle cx="298" cy="166" r="3" fill="#e3b341" opacity="0.5416666666666667"/>
<circle cx="371" cy="207" r="1" fill="#d65b5b" opacity="0.6"/>
<circle cx="444" cy="248" r="2" fill="#1f66b2" opacity="0.25"/>
<circle cx="517" cy="289" r="3" fill="#0aa082" opacity="0.30833333333333335"/>
<circle cx="590" cy="330" r="1" fill="#e3b341" opacity="0.36666666666666664"/>
<circle cx="663" cy="371" r="2" fill="#d65b5b" opacity="0.425"/>
<circle cx="736" cy="412" r="3" fill="#1f66b2" opacity="0.4833333333333333"/>
<circle cx="809" cy="453" r="1" fill="#0aa082" opacity="0.5416666666666667"/>
<circle cx="882" cy="494" r="2" fill="#e3b341" opacity="0.6"/>
<circle cx="955" cy="535" r="3" fill="#d65b5b" opacity="0.25"/>
<circle cx="1028" cy="576" r="1" fill="#1f66b2" opacity="0.30833333333333335"/>
<circle cx="1101" cy="617" r="2" fill="#0aa082" opacity="0.36666666666666664"/>
<circle cx="1174" cy="658" r="3" fill="#e3b341" opacity="0.425"/>
<circle cx="1247" cy="699" r="1" fill="#d65b5b" opacity="0.4833333333333333"/>
<circle cx="1320" cy="740" r="2" fill="#1f66b2" opacity="0.5416666666666667"/>
<circle cx="1393" cy="781" r="3" fill="#0aa082" opacity="0.6"/>
<circle cx="1466" cy="822" r="1" fill="#e3b341" opacity="0.25"/>
<circle cx="1539" cy="863" r="2" fill="#d65b5b" opacity="0.30833333333333335"/>
<circle cx="12" cy="4" r="3" fill="#1f66b2" opacity="0.36666666666666664"/>
<circle cx="85" cy="45" r="1" fill="#0aa082" opacity="0.425"/>
<circle cx="158" cy="86" r="2" fill="#e3b341" opacity="0.4833333333333333"/>
<circle cx="231" cy="127" r="3" fill="#d65b5b" opacity="0.5416666666666667"/>
<circle cx="304" cy="168" r="1" fill="#1f66b2" opacity="0.6"/>
<circle cx="377" cy="209" r="2" fill="#0aa082" opacity="0.25"/>
<circle cx="450" cy="250" r="3" fill="#e3b341" opacity="0.30833333333333335"/>
<circle cx="523" cy="291" r="1" fill="#d65b5b" opacity="0.36666666666666664"/>
<circle cx="596" cy="332" r="2" fill="#1f66b2" opacity="0.425"/>
<circle cx="669" cy="373" r="3" fill="#0aa082" opacity="0.4833333333333333"/>
<circle cx="742" cy="414" r="1" fill="#e3b341" opacity="0.5416666666666667"/>
<circle cx="815" cy="455" r="2" fill="#d65b5b" opacity="0.6"/>
<circle cx="888" cy="496" r="3" fill="#1f66b2" opacity="0.25"/>
<circle cx="961" cy="537" r="1" fill="#0aa082" opacity="0.30833333333333335"/>
<circle cx="1034" cy="578" r="2" fill="#e3b341" opacity="0.36666666666666664"/>
<circle cx="1107" cy="619" r="3" fill="#d65b5b" opacity="0.425"/>
<circle cx="1180" cy="660" r="1" fill="#1f66b2" opacity="0.4833333333333333"/>
<circle cx="1253" cy="701" r="2" fill="#0aa082" opacity="0.5416666666666667"/>
<circle cx="1326" cy="742" r="3" fill="#e3b341" opacity="0.6"/>
<circle cx="1399" cy="783" r="1" fill="#d65b5b" opacity="0.25"/>
<circle cx="1472" cy="824" r="2" fill="#1f66b2" opacity="0.30833333333333335"/>
<circle cx="1545" cy="865" r="3" fill="#0aa082" opacity="0.36666666666666664"/>
<circle cx="18" cy="6" r="1" fill="#e3b341" opacity="0.425"/>
<circle cx="91" cy="47" r="2" fill="#d65b5b" opacity="0.4833333333333333"/>
<circle cx="164" cy="88" r="3" fill="#1f66b2" opacity="0.5416666666666667"/>
<circle cx="237" cy="129" r="1" fill="#0aa082" opacity="0.6"/>
<circle cx="310" cy="170" r="2" fill="#e3b341" opacity="0.25"/>
<circle cx="383" cy="211" r="3" fill="#d65b5b" opacity="0.30833333333333335"/>
<circle cx="456" cy="252" r="1" fill="#1f66b2" opacity="0.36666666666666664"/>
<circle cx="529" cy="293" r="2" fill="#0aa082" opacity="0.425"/>
<circle cx="602" cy="334" r="3" fill="#e3b341" opacity="0.4833333333333333"/>
<circle cx="675" cy="375" r="1" fill="#d65b5b" opacity="0.5416666666666667"/>
<circle cx="748" cy="416" r="2" fill="#1f66b2" opacity="0.6"/>
<circle cx="821" cy="457" r="3" fill="#0aa082" opacity="0.25"/>
<circle cx="894" cy="498" r="1" fill="#e3b341" opacity="0.30833333333333335"/>
<circle cx="967" cy="539" r="2" fill="#d65b5b" opacity="0.36666666666666664"/>
<circle cx="1040" cy="580" r="3" fill="#1f66b2" opacity="0.425"/>
<circle cx="1113" cy="621" r="1" fill="#0aa082" opacity="0.4833333333333333"/>
<circle cx="1186" cy="662" r="2" fill="#e3b341" opacity="0.5416666666666667"/>
<circle cx="1259" cy="703" r="3" fill="#d65b5b" opacity="0.6"/>
<circle cx="1332" cy="744" r="1" fill="#1f66b2" opacity="0.25"/>
<circle cx="1405" cy="785" r="2" fill="#0aa082" opacity="0.30833333333333335"/>
<circle cx="1478" cy="826" r="3" fill="#e3b341" opacity="0.36666666666666664"/>
<circle cx="1551" cy="867" r="1" fill="#d65b5b" opacity="0.425"/>
<circle cx="24" cy="8" r="2" fill="#1f66b2" opacity="0.4833333333333333"/>
<circle cx="97" cy="49" r="3" fill="#0aa082" opacity="0.5416666666666667"/>
<circle cx="170" cy="90" r="1" fill="#e3b341" opacity="0.6"/>
<circle cx="243" cy="131" r="2" fill="#d65b5b" opacity="0.25"/>
<circle cx="316" cy="172" r="3" fill="#1f66b2" opacity="0.30833333333333335"/>
<circle cx="389" cy="213" r="1" fill="#0aa082" opacity="0.36666666666666664"/>
<circle cx="462" cy="254" r="2" fill="#e3b341" opacity="0.425"/>
<circle cx="535" cy="295" r="3" fill="#d65b5b" opacity="0.4833333333333333"/>
<circle cx="608" cy="336" r="1" fill="#1f66b2" opacity="0.5416666666666667"/>
<circle cx="681" cy="377" r="2" fill="#0aa082" opacity="0.6"/>
<circle cx="754" cy="418" r="3" fill="#e3b341" opacity="0.25"/>
<circle cx="827" cy="459" r="1" fill="#d65b5b" opacity="0.30833333333333335"/>
<circle cx="900" cy="500" r="2" fill="#1f66b2" opacity="0.36666666666666664"/>
<circle cx="973" cy="541" r="3" fill="#0aa082" opacity="0.425"/>
<circle cx="1046" cy="582" r="1" fill="#e3b341" opacity="0.4833333333333333"/>
<circle cx="1119" cy="623" r="2" fill="#d65b5b" opacity="0.5416666666666667"/>
<circle cx="1192" cy="664" r="3" fill="#1f66b2" opacity="0.6"/>
<circle cx="1265" cy="705" r="1" fill="#0aa082" opacity="0.25"/>
<circle cx="1338" cy="746" r="2" fill="#e3b341" opacity="0.30833333333333335"/>
<circle cx="1411" cy="787" r="3" fill="#d65b5b" opacity="0.36666666666666664"/>
<circle cx="1484" cy="828" r="1" fill="#1f66b2" opacity="0.425"/>
<circle cx="1557" cy="869" r="2" fill="#0aa082" opacity="0.4833333333333333"/>
<circle cx="30" cy="10" r="3" fill="#e3b341" opacity="0.5416666666666667"/>
<circle cx="103" cy="51" r="1" fill="#d65b5b" opacity="0.6"/>
<circle cx="176" cy="92" r="2" fill="#1f66b2" opacity="0.25"/>
<circle cx="249" cy="133" r="3" fill="#0aa082" opacity="0.30833333333333335"/>
<circle cx="322" cy="174" r="1" fill="#e3b341" opacity="0.36666666666666664"/>
<circle cx="395" cy="215" r="2" fill="#d65b5b" opacity="0.425"/>
<circle cx="468" cy="256" r="3" fill="#1f66b2" opacity="0.4833333333333333"/>
<circle cx="541" cy="297" r="1" fill="#0aa082" opacity="0.5416666666666667"/>
<circle cx="614" cy="338" r="2" fill="#e3b341" opacity="0.6"/>
<circle cx="687" cy="379" r="3" fill="#d65b5b" opacity="0.25"/>
<circle cx="760" cy="420" r="1" fill="#1f66b2" opacity="0.30833333333333335"/>
<circle cx="833" cy="461" r="2" fill="#0aa082" opacity="0.36666666666666664"/>
<circle cx="906" cy="502" r="3" fill="#e3b341" opacity="0.425"/>
<circle cx="979" cy="543" r="1" fill="#d65b5b" opacity="0.4833333333333333"/>
<circle cx="1052" cy="584" r="2" fill="#1f66b2" opacity="0.5416666666666667"/>
<circle cx="1125" cy="625" r="3" fill="#0aa082" opacity="0.6"/>
<circle cx="1198" cy="666" r="1" fill="#e3b341" opacity="0.25"/>
<circle cx="1271" cy="707" r="2" fill="#d65b5b" opacity="0.30833333333333335"/>
<circle cx="1344" cy="748" r="3" fill="#1f66b2" opacity="0.36666666666666664"/>
<circle cx="1417" cy="789" r="1" fill="#0aa082" opacity="0.425"/>
<circle cx="1490" cy="830" r="2" fill="#e3b341" opacity="0.4833333333333333"/>
<circle cx="1563" cy="871" r="3" fill="#d65b5b" opacity="0.5416666666666667"/>
<circle cx="36" cy="12" r="1" fill="#1f66b2" opacity="0.6"/>
<circle cx="109" cy="53" r="2" fill="#0aa082" opacity="0.25"/>
<circle cx="182" cy="94" r="3" fill="#e3b341" opacity="0.30833333333333335"/>
<circle cx="255" cy="135" r="1" fill="#d65b5b" opacity="0.36666666666666664"/>
<circle cx="328" cy="176" r="2" fill="#1f66b2" opacity="0.425"/>
<circle cx="401" cy="217" r="3" fill="#0aa082" opacity="0.4833333333333333"/>
<circle cx="474" cy="258" r="1" fill="#e3b341" opacity="0.5416666666666667"/>
<circle cx="547" cy="299" r="2" fill="#d65b5b" opacity="0.6"/>
<circle cx="620" cy="340" r="3" fill="#1f66b2" opacity="0.25"/>
<circle cx="693" cy="381" r="1" fill="#0aa082" opacity="0.30833333333333335"/>
<circle cx="766" cy="422" r="2" fill="#e3b341" opacity="0.36666666666666664"/>
<circle cx="839" cy="463" r="3" fill="#d65b5b" opacity="0.425"/>
<circle cx="912" cy="504" r="1" fill="#1f66b2" opacity="0.4833333333333333"/>
<circle cx="985" cy="545" r="2" fill="#0aa082" opacity="0.5416666666666667"/>
<circle cx="1058" cy="586" r="3" fill="#e3b341" opacity="0.6"/>
<circle cx="1131" cy="627" r="1" fill="#d65b5b" opacity="0.25"/>
<circle cx="1204" cy="668" r="2" fill="#1f66b2" opacity="0.30833333333333335"/>
<circle cx="1277" cy="709" r="3" fill="#0aa082" opacity="0.36666666666666664"/>
<circle cx="1350" cy="750" r="1" fill="#e3b341" opacity="0.425"/>
<circle cx="1423" cy="791" r="2" fill="#d65b5b" opacity="0.4833333333333333"/>
<circle cx="1496" cy="832" r="3" fill="#1f66b2" opacity="0.5416666666666667"/>
<circle cx="1569" cy="873" r="1" fill="#0aa082" opacity="0.6"/>
<circle cx="42" cy="14" r="2" fill="#e3b341" opacity="0.25"/>
<circle cx="115" cy="55" r="3" fill="#d65b5b" opacity="0.30833333333333335"/>
<circle cx="188" cy="96" r="1" fill="#1f66b2" opacity="0.36666666666666664"/>
<circle cx="261" cy="137" r="2" fill="#0aa082" opacity="0.425"/>
<circle cx="334" cy="178" r="3" fill="#e3b341" opacity="0.4833333333333333"/>
<circle cx="407" cy="219" r="1" fill="#d65b5b" opacity="0.5416666666666667"/>
<circle cx="480" cy="260" r="2" fill="#1f66b2" opacity="0.6"/>
<circle cx="553" cy="301" r="3" fill="#0aa082" opacity="0.25"/>
<circle cx="626" cy="342" r="1" fill="#e3b341" opacity="0.30833333333333335"/>
<circle cx="699" cy="383" r="2" fill="#d65b5b" opacity="0.36666666666666664"/>
<circle cx="772" cy="424" r="3" fill="#1f66b2" opacity="0.425"/>
<circle cx="845" cy="465" r="1" fill="#0aa082" opacity="0.4833333333333333"/>
<circle cx="918" cy="506" r="2" fill="#e3b341" opacity="0.5416666666666667"/>
<circle cx="991" cy="547" r="3" fill="#d65b5b" opacity="0.6"/>
<circle cx="1064" cy="588" r="1" fill="#1f66b2" opacity="0.25"/>
<circle cx="1137" cy="629" r="2" fill="#0aa082" opacity="0.30833333333333335"/>
<circle cx="1210" cy="670" r="3" fill="#e3b341" opacity="0.36666666666666664"/>
<circle cx="1283" cy="711" r="1" fill="#d65b5b" opacity="0.425"/>
<circle cx="1356" cy="752" r="2" fill="#1f66b2" opacity="0.4833333333333333"/>
<circle cx="1429" cy="793" r="3" fill="#0aa082" opacity="0.5416666666666667"/>
<circle cx="1502" cy="834" r="1" fill="#e3b341" opacity="0.6"/>
<circle cx="1575" cy="875" r="2" fill="#d65b5b" opacity="0.25"/>
<circle cx="48" cy="16" r="3" fill="#1f66b2" opacity="0.30833333333333335"/>
<circle cx="121" cy="57" r="1" fill="#0aa082" opacity="0.36666666666666664"/>
<circle cx="194" cy="98" r="2" fill="#e3b341" opacity="0.425"/>
<circle cx="267" cy="139" r="3" fill="#d65b5b" opacity="0.4833333333333333"/>
<circle cx="340" cy="180" r="1" fill="#1f66b2" opacity="0.5416666666666667"/>
<circle cx="413" cy="221" r="2" fill="#0aa082" opacity="0.6"/>
<circle cx="486" cy="262" r="3" fill="#e3b341" opacity="0.25"/>
<circle cx="559" cy="303" r="1" fill="#d65b5b" opacity="0.30833333333333335"/>
<circle cx="632" cy="344" r="2" fill="#1f66b2" opacity="0.36666666666666664"/>
<circle cx="705" cy="385" r="3" fill="#0aa082" opacity="0.425"/>
<circle cx="778" cy="426" r="1" fill="#e3b341" opacity="0.4833333333333333"/>
<circle cx="851" cy="467" r="2" fill="#d65b5b" opacity="0.5416666666666667"/>
<circle cx="924" cy="508" r="3" fill="#1f66b2" opacity="0.6"/>
<circle cx="997" cy="549" r="1" fill="#0aa082" opacity="0.25"/>
<circle cx="1070" cy="590" r="2" fill="#e3b341" opacity="0.30833333333333335"/>
<circle cx="1143" cy="631" r="3" fill="#d65b5b" opacity="0.36666666666666664"/>
<circle cx="1216" cy="672" r="1" fill="#1f66b2" opacity="0.425"/>
<circle cx="1289" cy="713" r="2" fill="#0aa082" opacity="0.4833333333333333"/>
<circle cx="1362" cy="754" r="3" fill="#e3b341" opacity="0.5416666666666667"/>
<circle cx="1435" cy="795" r="1" fill="#d65b5b" opacity="0.6"/>
<circle cx="1508" cy="836" r="2" fill="#1f66b2" opacity="0.25"/>
<circle cx="1581" cy="877" r="3" fill="#0aa082" opacity="0.30833333333333335"/>
<circle cx="54" cy="18" r="1" fill="#e3b341" opacity="0.36666666666666664"/>
<circle cx="127" cy="59" r="2" fill="#d65b5b" opacity="0.425"/>
<circle cx="200" cy="100" r="3" fill="#1f66b2" opacity="0.4833333333333333"/>
<circle cx="273" cy="141" r="1" fill="#0aa082" opacity="0.5416666666666667"/>
<circle cx="346" cy="182" r="2" fill="#e3b341" opacity="0.6"/>
<circle cx="419" cy="223" r="3" fill="#d65b5b" opacity="0.25"/>
<circle cx="492" cy="264" r="1" fill="#1f66b2" opacity="0.30833333333333335"/>
<circle cx="565" cy="305" r="2" fill="#0aa082" opacity="0.36666666666666664"/>
<circle cx="638" cy="346" r="3" fill="#e3b341" opacity="0.425"/>
<circle cx="711" cy="387" r="1" fill="#d65b5b" opacity="0.4833333333333333"/>
<circle cx="784" cy="428" r="2" fill="#1f66b2" opacity="0.5416666666666667"/>
<circle cx="857" cy="469" r="3" fill="#0aa082" opacity="0.6"/>
<circle cx="930" cy="510" r="1" fill="#e3b341" opacity="0.25"/>
<circle cx="1003" cy="551" r="2" fill="#d65b5b" opacity="0.30833333333333335"/>
<circle cx="1076" cy="592" r="3" fill="#1f66b2" opacity="0.36666666666666664"/>
<circle cx="1149" cy="633" r="1" fill="#0aa082" opacity="0.425"/>
<circle cx="1222" cy="674" r="2" fill="#e3b341" opacity="0.4833333333333333"/>
<circle cx="1295" cy="715" r="3" fill="#d65b5b" opacity="0.5416666666666667"/>
<circle cx="1368" cy="756" r="1" fill="#1f66b2" opacity="0.6"/>
<circle cx="1441" cy="797" r="2" fill="#0aa082" opacity="0.25"/>
<circle cx="1514" cy="838" r="3" fill="#e3b341" opacity="0.30833333333333335"/>
<circle cx="1587" cy="879" r="1" fill="#d65b5b" opacity="0.36666666666666664"/>
<circle cx="60" cy="20" r="2" fill="#1f66b2" opacity="0.425"/>
<circle cx="133" cy="61" r="3" fill="#0aa082" opacity="0.4833333333333333"/>
<circle cx="206" cy="102" r="1" fill="#e3b341" opacity="0.5416666666666667"/>
<circle cx="279" cy="143" r="2" fill="#d65b5b" opacity="0.6"/>
<circle cx="352" cy="184" r="3" fill="#1f66b2" opacity="0.25"/>
<circle cx="425" cy="225" r="1" fill="#0aa082" opacity="0.30833333333333335"/>
<circle cx="498" cy="266" r="2" fill="#e3b341" opacity="0.36666666666666664"/>
<circle cx="571" cy="307" r="3" fill="#d65b5b" opacity="0.425"/>
<circle cx="644" cy="348" r="1" fill="#1f66b2" opacity="0.4833333333333333"/>
<circle cx="717" cy="389" r="2" fill="#0aa082" opacity="0.5416666666666667"/>
<circle cx="790" cy="430" r="3" fill="#e3b341" opacity="0.6"/>
<circle cx="863" cy="471" r="1" fill="#d65b5b" opacity="0.25"/>
<circle cx="936" cy="512" r="2" fill="#1f66b2" opacity="0.30833333333333335"/>
<circle cx="1009" cy="553" r="3" fill="#0aa082" opacity="0.36666666666666664"/>
<circle cx="1082" cy="594" r="1" fill="#e3b341" opacity="0.425"/>
<circle cx="1155" cy="635" r="2" fill="#d65b5b" opacity="0.4833333333333333"/>
<circle cx="1228" cy="676" r="3" fill="#1f66b2" opacity="0.5416666666666667"/>
<circle cx="1301" cy="717" r="1" fill="#0aa082" opacity="0.6"/>
<circle cx="1374" cy="758" r="2" fill="#e3b341" opacity="0.25"/>
<circle cx="1447" cy="799" r="3" fill="#d65b5b" opacity="0.30833333333333335"/>
<circle cx="1520" cy="840" r="1" fill="#1f66b2" opacity="0.36666666666666664"/>
<circle cx="1593" cy="881" r="2" fill="#0aa082" opacity="0.425"/>
<circle cx="66" cy="22" r="3" fill="#e3b341" opacity="0.4833333333333333"/>
<circle cx="139" cy="63" r="1" fill="#d65b5b" opacity="0.5416666666666667"/>
<circle cx="212" cy="104" r="2" fill="#1f66b2" opacity="0.6"/>
<circle cx="285" cy="145" r="3" fill="#0aa082" opacity="0.25"/>
<circle cx="358" cy="186" r="1" fill="#e3b341" opacity="0.30833333333333335"/>
<circle cx="431" cy="227" r="2" fill="#d65b5b" opacity="0.36666666666666664"/>
<circle cx="504" cy="268" r="3" fill="#1f66b2" opacity="0.425"/>
<circle cx="577" cy="309" r="1" fill="#0aa082" opacity="0.4833333333333333"/>
<circle cx="650" cy="350" r="2" fill="#e3b341" opacity="0.5416666666666667"/>
<circle cx="723" cy="391" r="3" fill="#d65b5b" opacity="0.6"/>
<circle cx="796" cy="432" r="1" fill="#1f66b2" opacity="0.25"/>
<circle cx="869" cy="473" r="2" fill="#0aa082" opacity="0.30833333333333335"/>
<circle cx="942" cy="514" r="3" fill="#e3b341" opacity="0.36666666666666664"/>
<circle cx="1015" cy="555" r="1" fill="#d65b5b" opacity="0.425"/>
<circle cx="1088" cy="596" r="2" fill="#1f66b2" opacity="0.4833333333333333"/>
<circle cx="1161" cy="637" r="3" fill="#0aa082" opacity="0.5416666666666667"/>
<circle cx="1234" cy="678" r="1" fill="#e3b341" opacity="0.6"/>
<circle cx="1307" cy="719" r="2" fill="#d65b5b" opacity="0.25"/>
<circle cx="1380" cy="760" r="3" fill="#1f66b2" opacity="0.30833333333333335"/>
<circle cx="1453" cy="801" r="1" fill="#0aa082" opacity="0.36666666666666664"/>
<circle cx="1526" cy="842" r="2" fill="#e3b341" opacity="0.425"/>
<circle cx="1599" cy="883" r="3" fill="#d65b5b" opacity="0.4833333333333333"/>
<circle cx="72" cy="24" r="1" fill="#1f66b2" opacity="0.5416666666666667"/>
<circle cx="145" cy="65" r="2" fill="#0aa082" opacity="0.6"/>
<circle cx="218" cy="106" r="3" fill="#e3b341" opacity="0.25"/>
<circle cx="291" cy="147" r="1" fill="#d65b5b" opacity="0.30833333333333335"/>
<circle cx="364" cy="188" r="2" fill="#1f66b2" opacity="0.36666666666666664"/>
<circle cx="437" cy="229" r="3" fill="#0aa082" opacity="0.425"/>
<circle cx="510" cy="270" r="1" fill="#e3b341" opacity="0.4833333333333333"/>
<circle cx="583" cy="311" r="2" fill="#d65b5b" opacity="0.5416666666666667"/>
<circle cx="656" cy="352" r="3" fill="#1f66b2" opacity="0.6"/>
<circle cx="729" cy="393" r="1" fill="#0aa082" opacity="0.25"/>
<circle cx="802" cy="434" r="2" fill="#e3b341" opacity="0.30833333333333335"/>
<circle cx="875" cy="475" r="3" fill="#d65b5b" opacity="0.36666666666666664"/>
<circle cx="948" cy="516" r="1" fill="#1f66b2" opacity="0.425"/>
<circle cx="1021" cy="557" r="2" fill="#0aa082" opacity="0.4833333333333333"/>
<circle cx="1094" cy="598" r="3" fill="#e3b341" opacity="0.5416666666666667"/>
<circle cx="1167" cy="639" r="1" fill="#d65b5b" opacity="0.6"/>
<circle cx="1240" cy="680" r="2" fill="#1f66b2" opacity="0.25"/>
<circle cx="1313" cy="721" r="3" fill="#0aa082" opacity="0.30833333333333335"/>
<circle cx="1386" cy="762" r="1" fill="#e3b341" opacity="0.36666666666666664"/>
<circle cx="1459" cy="803" r="2" fill="#d65b5b" opacity="0.425"/>
<circle cx="1532" cy="844" r="3" fill="#1f66b2" opacity="0.4833333333333333"/>
<circle cx="5" cy="885" r="1" fill="#0aa082" opacity="0.5416666666666667"/>
<circle cx="78" cy="26" r="2" fill="#e3b341" opacity="0.6"/>
<circle cx="151" cy="67" r="3" fill="#d65b5b" opacity="0.25"/>
<circle cx="224" cy="108" r="1" fill="#1f66b2" opacity="0.30833333333333335"/>
<circle cx="297" cy="149" r="2" fill="#0aa082" opacity="0.36666666666666664"/>
<circle cx="370" cy="190" r="3" fill="#e3b341" opacity="0.425"/>
<circle cx="443" cy="231" r="1" fill="#d65b5b" opacity="0.4833333333333333"/>
<circle cx="516" cy="272" r="2" fill="#1f66b2" opacity="0.5416666666666667"/>
<circle cx="589" cy="313" r="3" fill="#0aa082" opacity="0.6"/>
<circle cx="662" cy="354" r="1" fill="#e3b341" opacity="0.25"/>
<circle cx="735" cy="395" r="2" fill="#d65b5b" opacity="0.30833333333333335"/>
<circle cx="808" cy="436" r="3" fill="#1f66b2" opacity="0.36666666666666664"/>
<circle cx="881" cy="477" r="1" fill="#0aa082" opacity="0.425"/>
<circle cx="954" cy="518" r="2" fill="#e3b341" opacity="0.4833333333333333"/>
<circle cx="1027" cy="559" r="3" fill="#d65b5b" opacity="0.5416666666666667"/>
<circle cx="1100" cy="600" r="1" fill="#1f66b2" opacity="0.6"/>
<circle cx="1173" cy="641" r="2" fill="#0aa082" opacity="0.25"/>
<circle cx="1246" cy="682" r="3" fill="#e3b341" opacity="0.30833333333333335"/>
<circle cx="1319" cy="723" r="1" fill="#d65b5b" opacity="0.36666666666666664"/>
<circle cx="1392" cy="764" r="2" fill="#1f66b2" opacity="0.425"/>
<circle cx="1465" cy="805" r="3" fill="#0aa082" opacity="0.4833333333333333"/>
<circle cx="1538" cy="846" r="1" fill="#e3b341" opacity="0.5416666666666667"/>
<circle cx="11" cy="887" r="2" fill="#d65b5b" opacity="0.6"/>
<circle cx="84" cy="28" r="3" fill="#1f66b2" opacity="0.25"/>
<circle cx="157" cy="69" r="1" fill="#0aa082" opacity="0.30833333333333335"/>
<circle cx="230" cy="110" r="2" fill="#e3b341" opacity="0.36666666666666664"/>
<circle cx="303" cy="151" r="3" fill="#d65b5b" opacity="0.425"/>
<circle cx="376" cy="192" r="1" fill="#1f66b2" opacity="0.4833333333333333"/>
<circle cx="449" cy="233" r="2" fill="#0aa082" opacity="0.5416666666666667"/>
<circle cx="522" cy="274" r="3" fill="#e3b341" opacity="0.6"/>
<circle cx="595" cy="315" r="1" fill="#d65b5b" opacity="0.25"/>
<circle cx="668" cy="356" r="2" fill="#1f66b2" opacity="0.30833333333333335"/>
<circle cx="741" cy="397" r="3" fill="#0aa082" opacity="0.36666666666666664"/>
<circle cx="814" cy="438" r="1" fill="#e3b341" opacity="0.425"/>
<circle cx="887" cy="479" r="2" fill="#d65b5b" opacity="0.4833333333333333"/>
<circle cx="960" cy="520" r="3" fill="#1f66b2" opacity="0.5416666666666667"/>
<circle cx="1033" cy="561" r="1" fill="#0aa082" opacity="0.6"/>
<circle cx="1106" cy="602" r="2" fill="#e3b341" opacity="0.25"/>
<circle cx="1179" cy="643" r="3" fill="#d65b5b" opacity="0.30833333333333335"/>
<circle cx="1252" cy="684" r="1" fill="#1f66b2" opacity="0.36666666666666664"/>
<circle cx="1325" cy="725" r="2" fill="#0aa082" opacity="0.425"/>
<circle cx="1398" cy="766" r="3" fill="#e3b341" opacity="0.4833333333333333"/>
<circle cx="1471" cy="807" r="1" fill="#d65b5b" opacity="0.5416666666666667"/>
<circle cx="1544" cy="848" r="2" fill="#1f66b2" opacity="0.6"/>
<circle cx="17" cy="889" r="3" fill="#0aa082" opacity="0.25"/>
<circle cx="90" cy="30" r="1" fill="#e3b341" opacity="0.30833333333333335"/>
<circle cx="163" cy="71" r="2" fill="#d65b5b" opacity="0.36666666666666664"/>
<circle cx="236" cy="112" r="3" fill="#1f66b2" opacity="0.425"/>
<circle cx="309" cy="153" r="1" fill="#0aa082" opacity="0.4833333333333333"/>
<circle cx="382" cy="194" r="2" fill="#e3b341" opacity="0.5416666666666667"/>
<circle cx="455" cy="235" r="3" fill="#d65b5b" opacity="0.6"/>
<circle cx="528" cy="276" r="1" fill="#1f66b2" opacity="0.25"/>
<circle cx="601" cy="317" r="2" fill="#0aa082" opacity="0.30833333333333335"/>
<circle cx="674" cy="358" r="3" fill="#e3b341" opacity="0.36666666666666664"/>
<circle cx="747" cy="399" r="1" fill="#d65b5b" opacity="0.425"/>
<circle cx="820" cy="440" r="2" fill="#1f66b2" opacity="0.4833333333333333"/>
<circle cx="893" cy="481" r="3" fill="#0aa082" opacity="0.5416666666666667"/>
<circle cx="966" cy="522" r="1" fill="#e3b341" opacity="0.6"/>
<circle cx="1039" cy="563" r="2" fill="#d65b5b" opacity="0.25"/>
<circle cx="1112" cy="604" r="3" fill="#1f66b2" opacity="0.30833333333333335"/>
<circle cx="1185" cy="645" r="1" fill="#0aa082" opacity="0.36666666666666664"/>
<circle cx="1258" cy="686" r="2" fill="#e3b341" opacity="0.425"/>
<circle cx="1331" cy="727" r="3" fill="#d65b5b" opacity="0.4833333333333333"/>
<circle cx="1404" cy="768" r="1" fill="#1f66b2" opacity="0.5416666666666667"/>
<circle cx="1477" cy="809" r="2" fill="#0aa082" opacity="0.6"/>
<circle cx="1550" cy="850" r="3" fill="#e3b341" opacity="0.25"/>
<circle cx="23" cy="891" r="1" fill="#d65b5b" opacity="0.30833333333333335"/>
<circle cx="96" cy="32" r="2" fill="#1f66b2" opacity="0.36666666666666664"/>
<circle cx="169" cy="73" r="3" fill="#0aa082" opacity="0.425"/>
<circle cx="242" cy="114" r="1" fill="#e3b341" opacity="0.4833333333333333"/>
<circle cx="315" cy="155" r="2" fill="#d65b5b" opacity="0.5416666666666667"/>
<circle cx="388" cy="196" r="3" fill="#1f66b2" opacity="0.6"/>
<circle cx="461" cy="237" r="1" fill="#0aa082" opacity="0.25"/>
<circle cx="534" cy="278" r="2" fill="#e3b341" opacity="0.30833333333333335"/>
<circle cx="607" cy="319" r="3" fill="#d65b5b" opacity="0.36666666666666664"/>
<circle cx="680" cy="360" r="1" fill="#1f66b2" opacity="0.425"/>
<circle cx="753" cy="401" r="2" fill="#0aa082" opacity="0.4833333333333333"/>
<circle cx="826" cy="442" r="3" fill="#e3b341" opacity="0.5416666666666667"/>
<circle cx="899" cy="483" r="1" fill="#d65b5b" opacity="0.6"/>
<circle cx="972" cy="524" r="2" fill="#1f66b2" opacity="0.25"/>
<circle cx="1045" cy="565" r="3" fill="#0aa082" opacity="0.30833333333333335"/>
<circle cx="1118" cy="606" r="1" fill="#e3b341" opacity="0.36666666666666664"/>
<circle cx="1191" cy="647" r="2" fill="#d65b5b" opacity="0.425"/>
<circle cx="1264" cy="688" r="3" fill="#1f66b2" opacity="0.4833333333333333"/>
<circle cx="1337" cy="729" r="1" fill="#0aa082" opacity="0.5416666666666667"/>
<circle cx="1410" cy="770" r="2" fill="#e3b341" opacity="0.6"/>
<circle cx="1483" cy="811" r="3" fill="#d65b5b" opacity="0.25"/>
<circle cx="1556" cy="852" r="1" fill="#1f66b2" opacity="0.30833333333333335"/>
<circle cx="29" cy="893" r="2" fill="#0aa082" opacity="0.36666666666666664"/>
<circle cx="102" cy="34" r="3" fill="#e3b341" opacity="0.425"/>
<circle cx="175" cy="75" r="1" fill="#d65b5b" opacity="0.4833333333333333"/>
<circle cx="248" cy="116" r="2" fill="#1f66b2" opacity="0.5416666666666667"/>
<circle cx="321" cy="157" r="3" fill="#0aa082" opacity="0.6"/>
<circle cx="394" cy="198" r="1" fill="#e3b341" opacity="0.25"/>
<circle cx="467" cy="239" r="2" fill="#d65b5b" opacity="0.30833333333333335"/>
<circle cx="540" cy="280" r="3" fill="#1f66b2" opacity="0.36666666666666664"/>
<circle cx="613" cy="321" r="1" fill="#0aa082" opacity="0.425"/>
<circle cx="686" cy="362" r="2" fill="#e3b341" opacity="0.4833333333333333"/>
<circle cx="759" cy="403" r="3" fill="#d65b5b" opacity="0.5416666666666667"/>
<circle cx="832" cy="444" r="1" fill="#1f66b2" opacity="0.6"/>
<circle cx="905" cy="485" r="2" fill="#0aa082" opacity="0.25"/>
<circle cx="978" cy="526" r="3" fill="#e3b341" opacity="0.30833333333333335"/>
<circle cx="1051" cy="567" r="1" fill="#d65b5b" opacity="0.36666666666666664"/>
<circle cx="1124" cy="608" r="2" fill="#1f66b2" opacity="0.425"/>
<circle cx="1197" cy="649" r="3" fill="#0aa082" opacity="0.4833333333333333"/>
<circle cx="1270" cy="690" r="1" fill="#e3b341" opacity="0.5416666666666667"/>
<circle cx="1343" cy="731" r="2" fill="#d65b5b" opacity="0.6"/>
<circle cx="1416" cy="772" r="3" fill="#1f66b2" opacity="0.25"/>
<circle cx="1489" cy="813" r="1" fill="#0aa082" opacity="0.30833333333333335"/>
<circle cx="1562" cy="854" r="2" fill="#e3b341" opacity="0.36666666666666664"/>
<circle cx="35" cy="895" r="3" fill="#d65b5b" opacity="0.425"/>
<circle cx="108" cy="36" r="1" fill="#1f66b2" opacity="0.4833333333333333"/>
<circle cx="181" cy="77" r="2" fill="#0aa082" opacity="0.5416666666666667"/>
<circle cx="254" cy="118" r="3" fill="#e3b341" opacity="0.6"/>
<circle cx="327" cy="159" r="1" fill="#d65b5b" opacity="0.25"/>
<circle cx="400" cy="200" r="2" fill="#1f66b2" opacity="0.30833333333333335"/>
<circle cx="473" cy="241" r="3" fill="#0aa082" opacity="0.36666666666666664"/>
<circle cx="546" cy="282" r="1" fill="#e3b341" opacity="0.425"/>
<circle cx="619" cy="323" r="2" fill="#d65b5b" opacity="0.4833333333333333"/>
<circle cx="692" cy="364" r="3" fill="#1f66b2" opacity="0.5416666666666667"/>
<circle cx="765" cy="405" r="1" fill="#0aa082" opacity="0.6"/>
<circle cx="838" cy="446" r="2" fill="#e3b341" opacity="0.25"/>
<circle cx="911" cy="487" r="3" fill="#d65b5b" opacity="0.30833333333333335"/>
<circle cx="984" cy="528" r="1" fill="#1f66b2" opacity="0.36666666666666664"/>
<circle cx="1057" cy="569" r="2" fill="#0aa082" opacity="0.425"/>
<circle cx="1130" cy="610" r="3" fill="#e3b341" opacity="0.4833333333333333"/>
<circle cx="1203" cy="651" r="1" fill="#d65b5b" opacity="0.5416666666666667"/>
<circle cx="1276" cy="692" r="2" fill="#1f66b2" opacity="0.6"/>
<circle cx="1349" cy="733" r="3" fill="#0aa082" opacity="0.25"/>
<circle cx="1422" cy="774" r="1" fill="#e3b341" opacity="0.30833333333333335"/>
<circle cx="1495" cy="815" r="2" fill="#d65b5b" opacity="0.36666666666666664"/>
<circle cx="1568" cy="856" r="3" fill="#1f66b2" opacity="0.425"/>
<circle cx="41" cy="897" r="1" fill="#0aa082" opacity="0.4833333333333333"/>
<circle cx="114" cy="38" r="2" fill="#e3b341" opacity="0.5416666666666667"/>
<circle cx="187" cy="79" r="3" fill="#d65b5b" opacity="0.6"/>
<circle cx="260" cy="120" r="1" fill="#1f66b2" opacity="0.25"/>
<circle cx="333" cy="161" r="2" fill="#0aa082" opacity="0.30833333333333335"/>
<circle cx="406" cy="202" r="3" fill="#e3b341" opacity="0.36666666666666664"/>
<circle cx="479" cy="243" r="1" fill="#d65b5b" opacity="0.425"/>
<circle cx="552" cy="284" r="2" fill="#1f66b2" opacity="0.4833333333333333"/>
<circle cx="625" cy="325" r="3" fill="#0aa082" opacity="0.5416666666666667"/>
<circle cx="698" cy="366" r="1" fill="#e3b341" opacity="0.6"/>
<circle cx="771" cy="407" r="2" fill="#d65b5b" opacity="0.25"/>
<circle cx="844" cy="448" r="3" fill="#1f66b2" opacity="0.30833333333333335"/>
<circle cx="917" cy="489" r="1" fill="#0aa082" opacity="0.36666666666666664"/>
<circle cx="990" cy="530" r="2" fill="#e3b341" opacity="0.425"/>
<circle cx="1063" cy="571" r="3" fill="#d65b5b" opacity="0.4833333333333333"/>
<circle cx="1136" cy="612" r="1" fill="#1f66b2" opacity="0.5416666666666667"/>
<circle cx="1209" cy="653" r="2" fill="#0aa082" opacity="0.6"/>
<circle cx="1282" cy="694" r="3" fill="#e3b341" opacity="0.25"/>
<circle cx="1355" cy="735" r="1" fill="#d65b5b" opacity="0.30833333333333335"/>
<circle cx="1428" cy="776" r="2" fill="#1f66b2" opacity="0.36666666666666664"/>
<circle cx="1501" cy="817" r="3" fill="#0aa082" opacity="0.425"/>
<circle cx="1574" cy="858" r="1" fill="#e3b341" opacity="0.4833333333333333"/>
<circle cx="47" cy="899" r="2" fill="#d65b5b" opacity="0.5416666666666667"/>
<circle cx="120" cy="40" r="3" fill="#1f66b2" opacity="0.6"/>
<circle cx="193" cy="81" r="1" fill="#0aa082" opacity="0.25"/>
<circle cx="266" cy="122" r="2" fill="#e3b341" opacity="0.30833333333333335"/>
<circle cx="339" cy="163" r="3" fill="#d65b5b" opacity="0.36666666666666664"/>
<circle cx="412" cy="204" r="1" fill="#1f66b2" opacity="0.425"/>
<circle cx="485" cy="245" r="2" fill="#0aa082" opacity="0.4833333333333333"/>
<circle cx="558" cy="286" r="3" fill="#e3b341" opacity="0.5416666666666667"/>
<circle cx="631" cy="327" r="1" fill="#d65b5b" opacity="0.6"/>
<circle cx="704" cy="368" r="2" fill="#1f66b2" opacity="0.25"/>
<circle cx="777" cy="409" r="3" fill="#0aa082" opacity="0.30833333333333335"/>
  </g>
</svg>
